<?xml version="1.0" encoding="UTF-8" standalone="no"?><!DOCTYPE svg PUBLIC "-//W3C//DTD SVG 1.1//EN" "http://www.w3.org/Graphics/SVG/1.1/DTD/svg11.dtd"><svg width="100%" height="100%" viewBox="0 0 392 470" version="1.1" xmlns="http://www.w3.org/2000/svg" xmlns:xlink="http://www.w3.org/1999/xlink" xml:space="preserve" xmlns:serif="http://www.serif.com/" style="fill-rule:evenodd;clip-rule:evenodd;stroke-linejoin:round;stroke-miterlimit:1.41421;"><path d="M289.347,67.111c7.979,4.931 10.632,15.103 5.925,22.72c-4.708,7.617 -14.992,9.794 -22.973,4.863c-7.981,-4.932 -10.634,-15.103 -5.927,-22.722c4.708,-7.615 14.994,-9.794 22.975,-4.861" style="fill:#f6891f;fill-rule:nonzero;"/><path d="M132.846,214.575c0,10.55 19.475,19.1 54.44,19.1c34.967,0 54.44,-8.55 54.44,-19.1c0,-10.543 -19.473,-19.092 -54.44,-19.092c-34.965,0 -54.44,8.549 -54.44,19.092Z" style="fill:url(#_Linear1);fill-rule:nonzero;"/><path d="M21.459,328.055c0.037,0.2 -2.573,2.72 -2.705,2.877c-13.854,16.557 -4.907,18.136 -11.408,27.503c-3.526,5.079 -12.263,16.309 -3.698,21.173c6.045,3.433 16.693,-2.402 26.683,-8.238c10.856,-6.342 20.937,-12.684 23.484,-7.129c5.686,18.879 -54.181,31.838 -38.062,50.615c14.352,16.719 40.906,-6.605 54.621,-21.257c3.717,-4.428 6.551,-6.743 8.72,-5.693c3.674,1.779 2.917,5.789 0.107,16.482c-2.044,5.199 -3.81,8.695 -8.114,14.283c-2.364,3.065 -7.109,8.495 -9.189,11.593c-5.667,8.448 -3.011,19.194 7.813,22.181c16.354,4.511 26.254,-5.007 33.018,-20.164c7.309,-16.383 4.944,-22.616 13.254,-39.453c0,0 4.863,-13.29 16.015,-10.829c11.152,2.462 11.812,13.596 6.905,32.024c-3.904,14.675 -19.764,36.113 -6.334,46.978c14.299,11.568 34.004,-21.599 36.75,-27.549c2.879,-6.241 8.667,-18.137 18.582,-15.026c10.644,3.341 11.184,22.509 12.824,29.974c2.984,13.584 2.105,24.45 19.732,18.686c5.071,-1.658 8.277,-3.712 13.825,-2.225c4.501,1.21 5.604,4.742 10.853,4.15c9.595,-1.08 11.584,-13.774 19.531,-16.439c4.753,-1.593 8.636,0.348 12.615,2.289c3.398,1.658 6.868,3.316 11.011,2.771c17.83,-2.35 12.962,-18.074 9.002,-28.776c-6.382,-17.243 -22.275,-33.008 -11.637,-51.203c16.27,-27.814 41.935,17.904 45.296,26.445c3.106,7.884 16.757,28.702 28.603,17.597c8.062,-7.561 -5.043,-22.178 -5.043,-29.236c0,-11.683 7.261,-5.55 13.505,-2.992c11.371,4.657 31.218,0.655 20.128,-21.35c-0.404,-0.805 -0.491,-1.711 -0.815,-2.555c-2.888,-5.213 -5.97,-11.307 -12.27,-15.589c-82.92,-56.327 -105.607,-113.761 -134.097,-139.187c-1.32,6.72 -20.384,25.913 -53.61,25.913c-33.367,0 -52.513,-19.239 -53.622,-25.999c-25.309,22.547 -39.482,69.165 -112.273,117.355Z" style="fill:url(#_Linear2);fill-rule:nonzero;"/><path d="M137.678,118.527l-18.927,-22.282l-2.005,34.437l-27.03,-16.878l2.888,23.6l44.061,42.874l6.45,7.647c0,0 19.312,28.887 44.413,29.193l0.183,0.015l0.106,-0.006l0.107,0.006l0.186,-0.015c21.632,-0.266 38.951,-21.738 43.328,-27.675l78.479,-75.412l-30.432,7.533l-1.687,-17.554l-14.537,14.519l-5.385,-20.596l-28.361,34.438l-4.39,-29.375l-35.133,40.856l-8.76,-15.196l-7.426,11.816l-28.024,-46.253l-8.104,24.308Z" style="fill:url(#_Linear3);fill-rule:nonzero;"/><path d="M170.935,169.513l-12.999,-9.623l-0.244,25.493c0,0 -15.87,-19.245 -16.207,-20.259c-0.269,-0.805 -0.75,13.31 -0.936,19.648l2.658,3.153c0,0 19.311,28.887 44.412,29.193l0.184,0.015l0.107,-0.006l0.106,0.006l0.186,-0.015c21.631,-0.266 38.952,-21.738 43.328,-27.675l2.526,-2.425l-0.397,-12.104l-13.506,5.405l-2.456,-18.403l-11.047,3.547c0,0 -3.302,-13.846 -3.639,-14.859c-0.253,-0.757 -13.675,18.064 -14.012,19.075c-0.338,1.015 -9.699,-19.749 -9.699,-19.749l-8.365,19.583Z" style="fill:url(#_Linear4);fill-rule:nonzero;"/><path d="M346.901,39c-3.494,8.706 -13.061,13.061 -21.372,9.726c-8.31,-3.336 -12.216,-13.095 -8.722,-21.802c3.492,-8.707 13.061,-13.059 21.37,-9.726c8.312,3.335 12.216,13.095 8.724,21.802" style="fill:#92c83e;fill-rule:nonzero;"/><path d="M108.67,86.64c-3.492,8.704 -13.059,13.058 -21.369,9.725c-8.311,-3.335 -12.217,-13.095 -8.725,-21.799c3.494,-8.709 13.063,-13.062 21.374,-9.728c8.31,3.333 12.214,13.094 8.72,21.802" style="fill:#e91c24;fill-rule:nonzero;"/><path d="M55.751,26.849c-3.494,8.705 -13.062,13.059 -21.371,9.726c-8.311,-3.334 -12.215,-13.095 -8.723,-21.8c3.493,-8.707 13.061,-13.062 21.371,-9.726c8.31,3.333 12.216,13.093 8.723,21.8" style="fill:#8451a0;fill-rule:nonzero;"/><path d="M94.485,22.923c3.494,8.706 13.061,13.061 21.372,9.726c8.31,-3.336 12.216,-13.095 8.722,-21.802c-3.492,-8.707 -13.061,-13.059 -21.37,-9.726c-8.312,3.335 -12.216,13.095 -8.724,21.802" style="fill:#14c3f4;fill-rule:nonzero;"/><defs><linearGradient id="_Linear1" x1="0" y1="0" x2="1" y2="0" gradientUnits="userSpaceOnUse" gradientTransform="matrix(0,21.427,21.427,0,187.279,207.198)"><stop offset="0" style="stop-color:#ec1c24;stop-opacity:1"/><stop offset="0.97" style="stop-color:#691418;stop-opacity:1"/><stop offset="1" style="stop-color:#691418;stop-opacity:1"/></linearGradient><linearGradient id="_Linear2" x1="0" y1="0" x2="1" y2="0" gradientUnits="userSpaceOnUse" gradientTransform="matrix(-12.0978,-200.624,-200.624,12.0978,202.763,495.565)"><stop offset="0" style="stop-color:#332d2c;stop-opacity:1"/><stop offset="0.96" style="stop-color:#120504;stop-opacity:1"/><stop offset="1" style="stop-color:#120504;stop-opacity:1"/></linearGradient><linearGradient id="_Linear3" x1="0" y1="0" x2="1" y2="0" gradientUnits="userSpaceOnUse" gradientTransform="matrix(0,-81.6615,-81.6615,-0,199.857,153.628)"><stop offset="0" style="stop-color:#f79a20;stop-opacity:1"/><stop offset="1" style="stop-color:#e96428;stop-opacity:1"/></linearGradient><linearGradient id="_Linear4" x1="0" y1="0" x2="1" y2="0" gradientUnits="userSpaceOnUse" gradientTransform="matrix(1.37588,-48.1303,-48.1303,-1.37588,187.138,192.315)"><stop offset="0" style="stop-color:#fffac2;stop-opacity:1"/><stop offset="1" style="stop-color:#fced02;stop-opacity:1"/></linearGradient></defs></svg>