<?xml version="1.0" encoding="UTF-8" standalone="no"?>
<!DOCTYPE svg PUBLIC "-//W3C//DTD SVG 1.1//EN" "http://www.w3.org/Graphics/SVG/1.1/DTD/svg11.dtd">
<svg width="100%" height="100%" viewBox="0 0 600 600" version="1.1" xmlns="http://www.w3.org/2000/svg" xmlns:xlink="http://www.w3.org/1999/xlink" xml:space="preserve" xmlns:serif="http://www.serif.com/" style="fill-rule:evenodd;clip-rule:evenodd;stroke-linejoin:round;stroke-miterlimit:1.41421;">
    <g transform="matrix(-0.914133,-0.56499,-0.56499,0.914133,293.175,139.513)">
        <path d="M-8.526,-30.003C-17.906,-30.004 -25.511,-22.746 -25.511,-13.792C-25.511,-4.837 -17.908,2.421 -8.526,2.423C0.856,2.424 8.46,-4.834 8.461,-13.789C8.46,-22.742 0.856,-30.003 -8.526,-30.003" style="fill:rgb(246,137,31);fill-rule:nonzero;"/>
    </g>
    <g transform="matrix(0,-23.0264,23.0264,0,208.234,283.311)">
        <path d="M0.345,-2.54C-0.148,-2.54 -0.547,-1.631 -0.547,0C-0.547,1.632 -0.148,2.541 0.345,2.541C0.837,2.541 1.236,1.632 1.236,0C1.236,-1.631 0.837,-2.54 0.345,-2.54Z" style="fill:url(#_Linear1);fill-rule:nonzero;"/>
    </g>
    <g transform="matrix(-13.0008,-215.599,215.599,-13.0008,227.483,577.18)">
        <path d="M0.886,-0.862C0.885,-0.862 0.873,-0.876 0.873,-0.877C0.795,-0.95 0.784,-0.906 0.74,-0.942C0.715,-0.961 0.662,-1.007 0.636,-0.966C0.617,-0.937 0.642,-0.883 0.668,-0.831C0.697,-0.775 0.725,-0.723 0.697,-0.713C0.601,-0.69 0.555,-0.991 0.457,-0.917C0.37,-0.85 0.477,-0.712 0.546,-0.639C0.567,-0.619 0.578,-0.605 0.572,-0.594C0.562,-0.576 0.542,-0.581 0.49,-0.598C0.465,-0.61 0.448,-0.62 0.421,-0.643C0.407,-0.656 0.381,-0.681 0.366,-0.692C0.326,-0.723 0.272,-0.713 0.254,-0.66C0.227,-0.58 0.271,-0.528 0.344,-0.49C0.423,-0.449 0.455,-0.459 0.536,-0.412C0.536,-0.412 0.601,-0.384 0.585,-0.33C0.57,-0.275 0.514,-0.275 0.424,-0.305C0.352,-0.329 0.251,-0.414 0.193,-0.35C0.131,-0.283 0.29,-0.175 0.318,-0.16C0.349,-0.143 0.406,-0.111 0.388,-0.063C0.368,-0.011 0.272,-0.014 0.235,-0.008C0.166,0.003 0.113,-0.005 0.136,0.084C0.143,0.11 0.152,0.127 0.143,0.154C0.136,0.176 0.118,0.18 0.119,0.206C0.122,0.254 0.184,0.268 0.195,0.308C0.201,0.332 0.191,0.351 0.18,0.37C0.171,0.387 0.161,0.403 0.163,0.424C0.169,0.513 0.249,0.494 0.303,0.477C0.391,0.451 0.474,0.377 0.561,0.435C0.694,0.524 0.459,0.638 0.416,0.652C0.376,0.665 0.268,0.727 0.32,0.789C0.355,0.831 0.432,0.77 0.467,0.772C0.525,0.776 0.492,0.81 0.477,0.84C0.451,0.895 0.465,0.995 0.577,0.947C0.582,0.945 0.586,0.945 0.59,0.943C0.617,0.931 0.648,0.917 0.671,0.887C0.976,0.492 1.268,0.397 1.403,0.263C1.37,0.254 1.28,0.154 1.29,-0.011C1.3,-0.177 1.402,-0.266 1.435,-0.27C1.331,-0.402 1.104,-0.486 0.886,-0.862Z" style="fill:url(#_Linear2);fill-rule:nonzero;"/>
    </g>
    <g transform="matrix(0,73.2197,-73.2197,0,204.666,304.077)">
        <path d="M0.184,1.232C0.403,1.171 0.589,1.053 0.502,0.839C0.453,0.717 0.155,0.623 0.292,0.448C0.35,0.373 0.531,0.367 0.609,0.347C0.717,0.318 0.881,0.283 0.962,0.185C1.125,-0.014 0.931,-0.148 0.778,-0.216C0.652,-0.272 0.182,-0.327 0.203,-0.563C0.216,-0.708 0.454,-0.759 0.433,-0.938C0.418,-1.063 0.126,-1.123 0.038,-1.211C0.031,-1.218 0.025,-1.224 0.019,-1.231C-0.172,-1.089 -0.332,-0.968 -0.448,-0.838C-0.349,-0.819 -0.178,-0.539 -0.178,-0.052C-0.178,0.438 -0.35,0.719 -0.449,0.735C-0.3,0.903 -0.079,1.037 0.184,1.232Z" style="fill:url(#_Linear3);fill-rule:nonzero;"/>
    </g>
    <g transform="matrix(0,-87.7567,87.7567,0,221.664,209.878)">
        <path d="M0.43,-0.76L0.703,-0.992L0.281,-1.017L0.488,-1.348L0.199,-1.312L-0.326,-0.773L-0.42,-0.694C-0.42,-0.694 -0.774,-0.457 -0.777,-0.15L-0.778,-0.148L-0.778,-0.146L-0.778,-0.145L-0.777,-0.143C-0.774,0.122 -0.511,0.334 -0.439,0.388L0.485,1.349L0.393,0.976L0.608,0.955L0.43,0.777L0.682,0.711L0.26,0.364L0.62,0.31L0.12,-0.12L0.306,-0.227L0.161,-0.318L0.727,-0.661L0.43,-0.76Z" style="fill:url(#_Linear4);fill-rule:nonzero;"/>
    </g>
    <g transform="matrix(1.47858,-51.7227,51.7227,1.47858,208.042,251.452)">
        <path d="M0.464,-0.349L0.656,-0.625L0.126,-0.615C0.126,-0.615 0.517,-0.956 0.537,-0.963C0.554,-0.969 0.261,-0.971 0.129,-0.971L0.065,-0.914C0.065,-0.914 -0.523,-0.496 -0.515,0.025L-0.515,0.029L-0.515,0.032L-0.515,0.034L-0.514,0.038C-0.496,0.486 -0.04,0.833 0.086,0.921L0.138,0.972L0.389,0.956L0.269,0.679L0.649,0.617L0.569,0.39C0.569,0.39 0.855,0.313 0.875,0.306C0.891,0.3 0.492,0.032 0.471,0.026C0.45,0.02 0.875,-0.187 0.875,-0.187L0.464,-0.349Z" style="fill:url(#_Linear5);fill-rule:nonzero;"/>
    </g>
    <g transform="matrix(0.400208,-0.997339,-0.997339,-0.400208,375.642,67.6138)">
        <path d="M-15.047,-10.177C-24.428,-10.176 -32.032,-2.919 -32.032,6.036C-32.031,14.99 -24.429,22.25 -15.047,22.25C-5.666,22.251 1.937,14.992 1.938,6.039C1.938,-2.917 -5.666,-10.175 -15.047,-10.177" style="fill:rgb(146,200,62);fill-rule:nonzero;"/>
    </g>
    <g transform="matrix(0.400151,-0.997362,-0.997362,-0.400151,119.633,118.81)">
        <path d="M-15.048,-10.174C-24.427,-10.174 -32.03,-2.916 -32.031,6.037C-32.03,14.993 -24.427,22.252 -15.048,22.252C-5.664,22.252 1.939,14.992 1.939,6.037C1.94,-2.916 -5.665,-10.174 -15.048,-10.174" style="fill:rgb(233,28,36);fill-rule:nonzero;"/>
    </g>
    <g transform="matrix(0.400151,-0.997362,-0.997362,-0.400151,62.7631,54.5564)">
        <path d="M-15.048,-10.174C-24.428,-10.173 -32.032,-2.914 -32.032,6.038C-32.033,14.993 -24.427,22.251 -15.048,22.251C-5.667,22.252 1.938,14.993 1.936,6.039C1.937,-2.915 -5.667,-10.174 -15.048,-10.174" style="fill:rgb(132,81,160);fill-rule:nonzero;"/>
    </g>
    <g transform="matrix(0.400208,0.997339,0.997339,-0.400208,112.642,50.337)">
        <path d="M15.047,-10.177C24.428,-10.176 32.032,-2.919 32.032,6.036C32.031,14.99 24.429,22.25 15.047,22.25C5.666,22.251 -1.937,14.992 -1.938,6.039C-1.938,-2.917 5.666,-10.175 15.047,-10.177" style="fill:rgb(20,195,244);fill-rule:nonzero;"/>
    </g>
    <defs>
        <linearGradient id="_Linear1" x1="0" y1="0" x2="1" y2="0" gradientUnits="userSpaceOnUse" gradientTransform="matrix(-1,0,0,1,0.68896,0)"><stop offset="0" style="stop-color:rgb(236,28,36);stop-opacity:1"/><stop offset="0.97" style="stop-color:rgb(105,20,24);stop-opacity:1"/><stop offset="1" style="stop-color:rgb(105,20,24);stop-opacity:1"/></linearGradient>
        <linearGradient id="_Linear2" x1="0" y1="0" x2="1" y2="0" gradientUnits="userSpaceOnUse" gradientTransform="matrix(1,0,0,-1,0,-0.0121024)"><stop offset="0" style="stop-color:rgb(51,45,44);stop-opacity:1"/><stop offset="0.96" style="stop-color:rgb(18,5,4);stop-opacity:1"/><stop offset="1" style="stop-color:rgb(18,5,4);stop-opacity:1"/></linearGradient>
        <linearGradient id="_Linear3" x1="0" y1="0" x2="1" y2="0" gradientUnits="userSpaceOnUse" gradientTransform="matrix(1,0,0,-1,0,0.00102739)"><stop offset="0" style="stop-color:rgb(51,45,44);stop-opacity:1"/><stop offset="0.96" style="stop-color:rgb(18,5,4);stop-opacity:1"/><stop offset="1" style="stop-color:rgb(18,5,4);stop-opacity:1"/></linearGradient>
        <linearGradient id="_Linear4" x1="0" y1="0" x2="1" y2="0" gradientUnits="userSpaceOnUse" gradientTransform="matrix(1,0,0,-1,0,0.000985777)"><stop offset="0" style="stop-color:rgb(247,154,32);stop-opacity:1"/><stop offset="1" style="stop-color:rgb(233,100,40);stop-opacity:1"/></linearGradient>
        <linearGradient id="_Linear5" x1="0" y1="0" x2="1" y2="0" gradientUnits="userSpaceOnUse" gradientTransform="matrix(1,0,0,-1,0,0.000789958)"><stop offset="0" style="stop-color:rgb(255,250,194);stop-opacity:1"/><stop offset="1" style="stop-color:rgb(252,237,2);stop-opacity:1"/></linearGradient>
    </defs>
</svg>
